<?xml version="1.0" encoding="UTF-8" standalone="no" ?>
<!DOCTYPE svg PUBLIC "-//W3C//DTD SVG 1.1//EN" "http://www.w3.org/Graphics/SVG/1.1/DTD/svg11.dtd">
<svg xmlns="http://www.w3.org/2000/svg" xmlns:xlink="http://www.w3.org/1999/xlink" version="1.1" width="1080" height="1080" viewBox="0 0 1080 1080" xml:space="preserve">
<desc>Created with Fabric.js 5.2.4</desc>
<defs>
</defs>
<g transform="matrix(1 0 0 1 540 540)" id="d24cf2c2-da8d-487e-8417-655c2359bd39"  >
<rect style="stroke: none; stroke-width: 1; stroke-dasharray: none; stroke-linecap: butt; stroke-dashoffset: 0; stroke-linejoin: miter; stroke-miterlimit: 4; fill: rgb(255,255,255); fill-rule: nonzero; opacity: 1; visibility: hidden;" vector-effect="non-scaling-stroke"  x="-540" y="-540" rx="0" ry="0" width="1080" height="1080" />
</g>
<g transform="matrix(1 0 0 1 540 540)" id="41cac3c7-aa4b-4053-ba96-f9d90b2830b8"  >
</g>
<g transform="matrix(0.22 0 0 0.22 542.66 478.34)"  >
<path style="stroke: rgb(0,0,0); stroke-opacity: 0.1; stroke-width: 6.5; stroke-dasharray: none; stroke-linecap: round; stroke-dashoffset: 0; stroke-linejoin: round; stroke-miterlimit: 1.5; fill: none; fill-rule: evenodd; opacity: 1;" vector-effect="non-scaling-stroke"  transform=" translate(-399.66, -182.42)" d="M 341.065 221.823 L 458.249 143.01" stroke-linecap="round" />
</g>
<g transform="matrix(0.22 0 0 0.22 538.77 566.97)"  >
<path style="stroke: rgb(0,0,0); stroke-opacity: 0.1; stroke-width: 6.5; stroke-dasharray: none; stroke-linecap: round; stroke-dashoffset: 0; stroke-linejoin: round; stroke-miterlimit: 1.5; fill: none; fill-rule: evenodd; opacity: 1;" vector-effect="non-scaling-stroke"  transform=" translate(-381.91, -587.22)" d="M 477.904 798.691 L 460.581 767.399 L 398.606 760.212 L 342.654 737.07 L 289.761 660.483 L 285.911 532.662 L 312.182 499.546 L 468 444.49 L 467.174 375.756 L 438.746 376.187" stroke-linecap="round" />
</g>
<g transform="matrix(0.22 0 0 0.22 513.03 532.41)"  >
<path style="stroke: rgb(0,0,0); stroke-opacity: 0.1; stroke-width: 6.5; stroke-dasharray: none; stroke-linecap: round; stroke-dashoffset: 0; stroke-linejoin: round; stroke-miterlimit: 1.5; fill: none; fill-rule: evenodd; opacity: 1;" vector-effect="non-scaling-stroke"  transform=" translate(-264.31, -429.39)" d="M 215.598 731.593 L 233.174 732.55 L 230.743 527.782 L 273.681 489.166 L 283.018 379.692 L 213.589 331.201 L 210.086 243.695 L 231.537 216.129 L 318.179 185.794 L 318.526 126.225" stroke-linecap="round" />
</g>
<g transform="matrix(0.22 0 0 0.22 539.25 539.25)"  >
<path style="stroke: rgb(53,53,53); stroke-width: 5; stroke-dasharray: none; stroke-linecap: round; stroke-dashoffset: 0; stroke-linejoin: round; stroke-miterlimit: 1.5; fill: rgb(128,128,128); fill-opacity: 0; fill-rule: evenodd; opacity: 1;" vector-effect="non-scaling-stroke"  transform=" translate(-387.51, -464.05)" d="M 456.746 145.471 L 599.929 145.506 L 602.366 209.808 L 521.67 226.387 L 522.423 265.385 L 603.929 271.112 L 599.115 391.478 L 622.004 562.252 L 603.14 577.971 L 626.053 642.785 L 637.474 788.21 L 534.568 790.064 L 535.158 800.966 L 285.893 802.718 L 214.373 732.128 L 140.533 728.455 L 137.549 697.993 L 176.902 636.593 L 147.56 562.49 L 152.44 504.352 L 173.869 504.59 L 175.378 480.135 L 247.339 449.847 L 259.979 381.4 L 162.099 345.791 L 160.693 197.172 L 209.151 146.249 L 306.163 140.007 L 304.448 125.378 L 456.192 127.521 L 456.746 145.471 Z" stroke-linecap="round" />
</g>
<g transform="matrix(0.22 0 0 0.22 535.72 502.41)"  >
<path style="stroke: rgb(48,48,48); stroke-width: 3; stroke-dasharray: none; stroke-linecap: round; stroke-dashoffset: 0; stroke-linejoin: round; stroke-miterlimit: 1.5; fill: none; fill-rule: evenodd; opacity: 1;" vector-effect="non-scaling-stroke"  transform=" translate(-375.95, -300.34)" d="M 312.654 224.167 L 340.465 222.661 L 342.618 348.91 L 438.65 351.602 L 439.243 378.011 L 315.584 377.709 L 312.654 224.167 Z" stroke-linecap="round" />
</g>
<g transform="matrix(0.22 0 0 0.22 547.67 568.52)"  >
<path style="stroke: rgb(55,55,55); stroke-width: 3; stroke-dasharray: none; stroke-linecap: round; stroke-dashoffset: 0; stroke-linejoin: round; stroke-miterlimit: 1.5; fill: none; fill-rule: evenodd; opacity: 1;" vector-effect="non-scaling-stroke"  transform=" translate(-430.54, -602.29)" d="M 388.085 512.696 L 432.44 481.368 L 483.176 488.547 L 484.742 538.391 L 456.448 565.89 L 462.178 628.423 L 496.998 641.098 L 505.027 698.579 L 471.343 717.968 L 441.79 723.208 L 419.982 706.316 L 356.05 693.339 L 356.185 649.645 L 407.094 634.398 L 411.14 577.226 L 387.652 559.3 L 388.085 512.696 Z" stroke-linecap="round" />
</g>
</svg>