<?xml version="1.0" encoding="UTF-8" standalone="no"?>
<!DOCTYPE svg PUBLIC "-//W3C//DTD SVG 1.1//EN" "http://www.w3.org/Graphics/SVG/1.1/DTD/svg11.dtd">
<svg width="100%" height="100%" viewBox="0 0 676 912" version="1.1" xmlns="http://www.w3.org/2000/svg" xmlns:xlink="http://www.w3.org/1999/xlink" xml:space="preserve" xmlns:serif="http://www.serif.com/" style="fill-rule:evenodd;clip-rule:evenodd;stroke-linecap:round;stroke-linejoin:round;stroke-miterlimit:1.5;">
    <g transform="matrix(1.33333,0,0,1.33333,-160.373,-226.11)">
        <g transform="matrix(1,0,0,1,-14.0192,47.4538)">
            <path d="M341.065,221.823L458.249,143.01" style="fill:none;stroke:black;stroke-opacity:0.1;stroke-width:6.5px;"/>
        </g>
        <g transform="matrix(1,0,0,1,-14.0192,47.4538)">
            <path d="M477.904,798.691L460.581,767.399L398.606,760.212L342.654,737.07L289.761,660.483L285.911,532.662L312.182,499.546L468,444.49L467.174,375.756L438.746,376.187" style="fill:none;stroke:black;stroke-opacity:0.1;stroke-width:6.5px;"/>
        </g>
        <g transform="matrix(1,0,0,1,-14.0192,47.4538)">
            <path d="M215.598,731.593L233.174,732.55L230.743,527.782L273.681,489.166L283.018,379.692L213.589,331.201L210.086,243.695L231.537,216.129L318.179,185.794L318.526,126.225" style="fill:none;stroke:black;stroke-opacity:0.1;stroke-width:6.5px;"/>
        </g>
        <g transform="matrix(1,0,0,1,-14.0192,47.4538)">
            <path d="M456.746,145.471L599.929,145.506L602.366,209.808L521.67,226.387L522.423,265.385L603.929,271.112L599.115,391.478L622.004,562.252L603.14,577.971L626.053,642.785L637.474,788.21L534.568,790.064L535.158,800.966L285.893,802.718L214.373,732.128L140.533,728.455L137.549,697.993L176.902,636.593L147.56,562.49L152.44,504.352L173.869,504.59L175.378,480.135L247.339,449.847L259.979,381.4L162.099,345.791L160.693,197.172L209.151,146.249L306.163,140.007L304.448,125.378L456.192,127.521L456.746,145.471Z" style="fill:rgb(128,128,128);fill-opacity:0;stroke:black;stroke-width:6.5px;"/>
        </g>
        <g transform="matrix(1,0,0,1,-14.0192,47.4538)">
            <path d="M312.654,224.167L340.465,222.661L342.618,348.91L438.65,351.602L439.243,378.011L315.584,377.709L312.654,224.167Z" style="fill:none;stroke:black;stroke-width:6.5px;"/>
        </g>
        <g transform="matrix(1,0,0,1,-14.0192,47.4538)">
            <path d="M388.085,512.696L432.44,481.368L483.176,488.547L484.742,538.391L456.448,565.89L462.178,628.423L496.998,641.098L505.027,698.579L471.343,717.968L441.79,723.208L419.982,706.316L356.05,693.339L356.185,649.645L407.094,634.398L411.14,577.226L387.652,559.3L388.085,512.696Z" style="fill:none;stroke:black;stroke-width:6.5px;"/>
        </g>
    </g>
</svg>
