<?xml version="1.0" encoding="UTF-8" standalone="no"?>
<svg
   width="111"
   height="150"
   viewBox="0 0 676 912"
   version="1.1"
   xml:space="preserve"
   style="clip-rule:evenodd;fill-rule:evenodd;stroke-linecap:round;stroke-linejoin:round;stroke-miterlimit:1.5"
   id="svg7"
   sodipodi:docname="depot.svg"
   inkscape:export-filename="depot_new.png"
   inkscape:export-xdpi="96"
   inkscape:export-ydpi="96"
   xmlns:inkscape="http://www.inkscape.org/namespaces/inkscape"
   xmlns:sodipodi="http://sodipodi.sourceforge.net/DTD/sodipodi-0.dtd"
   xmlns="http://www.w3.org/2000/svg"
   xmlns:svg="http://www.w3.org/2000/svg"><defs
   id="defs7" /><sodipodi:namedview
   id="namedview7"
   pagecolor="#ffffff"
   bordercolor="#000000"
   borderopacity="0.25"
   inkscape:showpageshadow="2"
   inkscape:pageopacity="0.0"
   inkscape:pagecheckerboard="0"
   inkscape:deskcolor="#d1d1d1"><inkscape:page
     x="0"
     y="0"
     width="676"
     height="912"
     id="page2"
     margin="0"
     bleed="0" /></sodipodi:namedview>
    <g
   transform="matrix(1.33333,0,0,1.33333,-160.373,-226.11)"
   id="g7">
        <g
   transform="translate(-14.0192,47.4538)"
   id="g1">
            <path
   d="M 341.065,221.823 458.249,143.01"
   style="fill:none;stroke:#000000;stroke-width:6.5px;stroke-opacity:0.1"
   id="path1" />
        </g>
        <g
   transform="translate(-14.0192,47.4538)"
   id="g2">
            <path
   d="M 477.904,798.691 460.581,767.399 398.606,760.212 342.654,737.07 289.761,660.483 285.911,532.662 312.182,499.546 468,444.49 l -0.826,-68.734 -28.428,0.431"
   style="fill:none;stroke:#000000;stroke-width:6.5px;stroke-opacity:0.1"
   id="path2" />
        </g>
        <g
   transform="translate(-14.0192,47.4538)"
   id="g3">
            <path
   d="m 215.598,731.593 17.576,0.957 -2.431,-204.768 42.938,-38.616 9.337,-109.474 -69.429,-48.491 -3.503,-87.506 21.451,-27.566 86.642,-30.335 0.347,-59.569"
   style="fill:none;stroke:#000000;stroke-width:6.5px;stroke-opacity:0.1"
   id="path3" />
        </g>
        <g
   transform="translate(-14.0192,47.4538)"
   id="g4"
   style="stroke:#3b3b3b;stroke-width:7.85167;stroke-linecap:round;stroke-linejoin:round;stroke-dasharray:none;stroke-opacity:1">
            <path
   d="m 456.746,145.471 143.183,0.035 2.437,64.302 -80.696,16.579 0.753,38.998 81.506,5.727 -4.814,120.366 22.889,170.774 -18.864,15.719 22.913,64.814 11.421,145.425 -102.906,1.854 0.59,10.902 -249.265,1.752 -71.52,-70.59 -73.84,-3.673 -2.984,-30.462 39.353,-61.4 -29.342,-74.103 4.88,-58.138 21.429,0.238 1.509,-24.455 71.961,-30.288 12.64,-68.447 -97.88,-35.609 -1.406,-148.619 48.458,-50.923 97.012,-6.242 -1.715,-14.629 151.744,2.143 z"
   style="fill:#808080;fill-opacity:0;stroke:#3b3b3b;stroke-width:7.85167;stroke-linecap:round;stroke-linejoin:round;stroke-dasharray:none;stroke-opacity:1"
   id="path4" />
        </g>
        <g
   transform="translate(-14.0192,47.4538)"
   id="g5"
   style="stroke:#323232;stroke-width:7.85167;stroke-dasharray:none;stroke-opacity:1">
            <path
   d="m 312.654,224.167 27.811,-1.506 2.153,126.249 96.032,2.692 0.593,26.409 -123.659,-0.302 z"
   style="fill:none;stroke:#323232;stroke-width:7.85167;stroke-dasharray:none;stroke-opacity:1"
   id="path5" />
        </g>
        <g
   transform="translate(-14.0192,47.4538)"
   id="g6"
   style="stroke:#323232;stroke-width:7.85167;stroke-linecap:round;stroke-linejoin:round;stroke-dasharray:none;stroke-opacity:1">
            <path
   d="m 388.085,512.696 44.355,-31.328 50.736,7.179 1.566,49.844 -28.294,27.499 5.73,62.533 34.82,12.675 8.029,57.481 -33.684,19.389 -29.553,5.24 -21.808,-16.892 -63.932,-12.977 0.135,-43.694 50.909,-15.247 4.046,-57.172 -23.488,-17.926 z"
   style="display:inline;fill:none;stroke:#323232;stroke-width:7.85167;stroke-linecap:round;stroke-linejoin:round;stroke-dasharray:none;stroke-opacity:1"
   id="path6" />
        </g>
    </g>
</svg>
