<?xml version="1.0" encoding="UTF-8" standalone="no"?>
<!DOCTYPE svg PUBLIC "-//W3C//DTD SVG 1.1//EN" "http://www.w3.org/Graphics/SVG/1.1/DTD/svg11.dtd">
<svg width="100%" height="100%" viewBox="0 0 243 143" version="1.1" xmlns="http://www.w3.org/2000/svg" xmlns:xlink="http://www.w3.org/1999/xlink" xml:space="preserve" xmlns:serif="http://www.serif.com/" style="fill-rule:evenodd;clip-rule:evenodd;stroke-linecap:round;stroke-linejoin:round;stroke-miterlimit:1.5;">
    <g transform="matrix(1,0,0,1,-63.7678,-661.533)">
        <g transform="matrix(1,0,0,1,32.0859,66.4472)">
            <path d="M33.932,630.587L119.063,732.213L127.918,682.382L33.932,630.587Z" style="fill:rgb(80,70,230);stroke:rgb(80,70,230);stroke-width:4.5px;"/>
        </g>
        <g transform="matrix(1,0,0,1,32.0859,66.4472)">
            <path d="M127.333,735.316L271.805,603.423L138.33,684.682L127.333,735.316Z" style="fill:rgb(80,70,230);stroke:rgb(80,70,230);stroke-width:4.5px;"/>
        </g>
        <g transform="matrix(1,0,0,1,32.0859,66.4472)">
            <path d="M139.682,673.797L138.332,651.825L270.069,596.836L139.682,673.797Z" style="fill:rgb(80,70,230);stroke:rgb(80,70,230);stroke-width:3.5px;"/>
        </g>
        <g transform="matrix(1,0,0,0.932462,-148.77,88.3023)">
            <path d="M214.695,643.565L311.667,674.479L311.353,699.549L214.695,643.565Z" style="fill:rgb(80,70,230);stroke:rgb(80,70,230);stroke-width:3.62px;"/>
        </g>
    </g>
</svg>
